<?xml version="1.0" standalone="no"?>
<!DOCTYPE svg PUBLIC "-//W3C//DTD SVG 20010904//EN"
 "http://www.w3.org/TR/2001/REC-SVG-20010904/DTD/svg10.dtd">
<svg version="1.0" xmlns="http://www.w3.org/2000/svg"
 width="294.000000pt" height="294.000000pt" viewBox="0 0 294.000000 294.000000"
 preserveAspectRatio="xMidYMid meet">
<metadata>
Created by potrace 1.11, written by Peter Selinger 2001-2013
</metadata>
<g transform="translate(0.000000,294.000000) scale(0.100000,-0.100000)"
fill="#000000" stroke="none">
<path d="M610 2475 l0 -145 -145 0 -145 0 0 -50 0 -50 145 0 145 0 0 -635 0
-635 -95 0 -95 0 0 -240 0 -240 245 0 245 0 0 95 0 95 630 0 630 0 0 -145 0
-145 50 0 50 0 0 145 0 145 145 0 145 0 0 50 0 50 -145 0 -145 0 0 635 0 635
95 0 95 0 0 240 0 240 -240 0 -240 0 0 -95 0 -95 -635 0 -635 0 0 145 0 145
-50 0 -50 0 0 -145z m1755 -195 l0 -145 -145 0 -145 0 -3 134 c-1 74 0 141 2
148 4 11 37 13 148 11 l143 -3 0 -145z m-385 -145 l0 -95 95 0 95 0 0 -635 0
-635 -630 0 -630 0 0 95 0 95 -100 0 -100 0 0 635 0 635 635 0 635 0 0 -95z
m-1172 -1412 l-3 -148 -142 -3 -143 -3 0 151 0 150 145 0 146 0 -3 -147z"/>
</g>
</svg>
